<svg width="32" height="33" xmlns="http://www.w3.org/2000/svg" xmlns:xlink="http://www.w3.org/1999/xlink" xmlns:svgjs="http://svgjs.com/svgjs" viewBox="0 0.5 32 32.001"><svg xmlns="http://www.w3.org/2000/svg" width="32" height="33" viewBox="1.996 2.493 30.977 30.978" fill="#a6b2be"><path fill="#A6B2BE" paint-order="stroke fill markers" fill-rule="evenodd" d="M11.639 25.127a1.297 1.297 0 0 1-.918-2.215l11.33-11.331a1.297 1.297 0 1 1 1.835 1.835l-11.33 11.33c-.253.254-.585.38-.917.38zm11.188-5.143c-.21 0-.42-.01-.634-.028a1.3 1.3 0 0 1-1.176-1.41 1.31 1.31 0 0 1 1.41-1.176 4.31 4.31 0 0 0 3.452-1.239l3.221-3.226a4.374 4.374 0 0 0 .003-6.177l-.365-.364a4.37 4.37 0 0 0-6.172 0l-3.227 3.225a4.327 4.327 0 0 0-1.242 3.45 1.297 1.297 0 1 1-2.585.234 6.914 6.914 0 0 1 1.992-5.52l3.227-3.225c2.71-2.712 7.125-2.714 9.842 0l.365.366c2.715 2.716 2.713 7.134-.002 9.846l-3.222 3.227a6.905 6.905 0 0 1-4.887 2.017zM9.32 33.47A6.946 6.946 0 0 1 4.4 31.437l-.37-.372a6.906 6.906 0 0 1-2.033-4.916c0-1.86.723-3.607 2.038-4.922L7.258 18c1.448-1.45 3.45-2.17 5.519-1.992.712.065 1.239.694 1.175 1.409a1.29 1.29 0 0 1-1.406 1.177 4.335 4.335 0 0 0-3.452 1.24l-3.222 3.229a4.332 4.332 0 0 0-1.28 3.086c0 1.165.454 2.261 1.277 3.085l.368.371a4.372 4.372 0 0 0 6.17-.005l3.229-3.228a4.31 4.31 0 0 0 1.237-3.448 1.3 1.3 0 0 1 1.176-1.41 1.305 1.305 0 0 1 1.41 1.177 6.897 6.897 0 0 1-1.988 5.516l-3.229 3.229a6.93 6.93 0 0 1-4.92 2.035z"/></svg></svg>